<svg width="13" height="13" viewBox="0 0 13 13" fill="none" xmlns="http://www.w3.org/2000/svg">
<path fill-rule="evenodd" clip-rule="evenodd" d="M7 1C7 0.723858 6.77614 0.5 6.5 0.5C6.22386 0.5 6 0.723858 6 1V6H1C0.723858 6 0.5 6.22386 0.5 6.5C0.5 6.77614 0.723858 7 1 7H6V12C6 12.2761 6.22386 12.5 6.5 12.5C6.77614 12.5 7 12.2761 7 12V7H12C12.2761 7 12.5 6.77614 12.5 6.5C12.5 6.22386 12.2761 6 12 6H7V1Z" fill="#BBBFC4"/>
<path d="M6 6V6.25H6.25V6H6ZM6 7H6.25V6.75H6V7ZM7 7V6.75H6.75V7H7ZM7 6H6.75V6.25H7V6ZM6.5 0.75C6.63807 0.75 6.75 0.861929 6.75 1H7.25C7.25 0.585786 6.91421 0.25 6.5 0.25V0.75ZM6.25 1C6.25 0.861929 6.36193 0.75 6.5 0.75V0.25C6.08579 0.25 5.75 0.585787 5.75 1H6.25ZM6.25 6V1H5.75V6H6.25ZM1 6.25H6V5.75H1V6.25ZM0.75 6.5C0.75 6.36193 0.861929 6.25 1 6.25V5.75C0.585786 5.75 0.25 6.08579 0.25 6.5H0.75ZM1 6.75C0.861929 6.75 0.75 6.63807 0.75 6.5H0.25C0.25 6.91421 0.585787 7.25 1 7.25V6.75ZM6 6.75H1V7.25H6V6.75ZM6.25 12V7H5.75V12H6.25ZM6.5 12.25C6.36193 12.25 6.25 12.1381 6.25 12H5.75C5.75 12.4142 6.08579 12.75 6.5 12.75V12.25ZM6.75 12C6.75 12.1381 6.63807 12.25 6.5 12.25V12.75C6.91421 12.75 7.25 12.4142 7.25 12H6.75ZM6.75 7V12H7.25V7H6.75ZM12 6.75H7V7.25H12V6.75ZM12.25 6.5C12.25 6.63807 12.1381 6.75 12 6.75V7.25C12.4142 7.25 12.75 6.91421 12.75 6.5H12.25ZM12 6.25C12.1381 6.25 12.25 6.36193 12.25 6.5H12.75C12.75 6.08579 12.4142 5.75 12 5.75V6.25ZM7 6.25H12V5.75H7V6.25ZM6.75 1V6H7.25V1H6.75Z" fill="#BBBFC4"/>
</svg>
